<?xml version="1.0" encoding="UTF-8"?>
<COLLADA xmlns="http://www.collada.org/2005/11/COLLADASchema" version="1.4.1">
    <asset>
        <contributor>
            <author>VCGLab</author>
            <authoring_tool>VCGLib | MeshLab</authoring_tool>
        </contributor>
        <created>Wed Jan 17 23:16:31 2024 GMT</created>
        <modified>Wed Jan 17 23:16:31 2024 GMT</modified>
        <up_axis>Y_UP</up_axis>
    </asset>
    <library_images>
        <image id="texture0" name="texture0">
            <init_from>notexture.png</init_from>
        </image>
    </library_images>
    <library_materials>
        <material id="material0" name="material0">
            <instance_effect url="#material0-fx"/>
        </material>
    </library_materials>
    <library_effects>
        <effect id="material0-fx">
            <profile_COMMON>
                <newparam sid="texture0-surface">
                    <surface type="2D">
                        <init_from>texture0</init_from>
                        <format>R8G8B8</format>
                    </surface>
                </newparam>
                <newparam sid="texture0-sampler">
                    <sampler2D>
                        <source>texture0-surface</source>
                        <minfilter>LINEAR</minfilter>
                        <magfilter>LINEAR</magfilter>
                    </sampler2D>
                </newparam>
                <technique sid="common">
                    <blinn>
                        <diffuse>
                            <texture texture="texture0-sampler" texcoord="UVSET0"/>
                        </diffuse>
                    </blinn>
                </technique>
            </profile_COMMON>
        </effect>
    </library_effects>
    <library_geometries>
        <geometry id="shape0-lib" name="shape0">
            <mesh>
                <source id="shape0-lib-positions" name="position">
                    <float_array id="shape0-lib-positions-array" count="768">0.4725 -1.04916e-16 0.4725 0.4725 -8.99281e-17 0.405 0.405 -8.99281e-17 0.405 0.405 -1.04916e-16 0.4725 0.4725 -7.49401e-17 0.3375 0.4725 -5.9952e-17 0.27 0.405 -5.9952e-17 0.27 0.405 -7.49401e-17 0.3375 0.3375 -5.9952e-17 0.27 0.27 -5.9952e-17 0.27 0.3375 -7.49401e-17 0.3375 0.27 -7.49401e-17 0.3375 0.27 -8.99281e-17 0.405 0.3375 -8.99281e-17 0.405 0.27 -1.04916e-16 0.4725 0.3375 -1.04916e-16 0.4725 0.4725 -1.4988e-17 0.0675 0.4725 0 -8.23975e-09 0.405 0 -8.23975e-09 0.405 -1.4988e-17 0.0675 0.405 -2.9976e-17 0.135 0.4725 -2.9976e-17 0.135 0.3375 0 -8.23975e-09 0.27 0 -8.23975e-09 0.3375 -1.4988e-17 0.0675 0.27 -1.4988e-17 0.0675 0.27 -2.9976e-17 0.135 0.3375 -2.9976e-17 0.135 0.27 -4.4964e-17 0.2025 0.3375 -4.4964e-17 0.2025 0.405 -4.4964e-17 0.2025 0.4725 -4.4964e-17 0.2025 0.0675 0 -8.23975e-09 8.23975e-09 0 -8.23975e-09 0.0675 -1.4988e-17 0.0675 8.23975e-09 -1.4988e-17 0.0675 8.23975e-09 -2.9976e-17 0.135 0.0675 -2.9976e-17 0.135 0.135 -2.9976e-17 0.135 0.135 -1.4988e-17 0.0675 0.135 0 -8.23975e-09 8.23975e-09 -4.4964e-17 0.2025 8.23975e-09 -5.9952e-17 0.27 0.0675 -4.4964e-17 0.2025 0.0675 -5.9952e-17 0.27 0.135 -5.9952e-17 0.27 0.135 -4.4964e-17 0.2025 0.2025 -5.9952e-17 0.27 0.2025 -4.4964e-17 0.2025 0.2025 -2.9976e-17 0.135 0.2025 -1.4988e-17 0.0675 0.2025 0 -8.23975e-09 8.23975e-09 -1.04916e-16 0.4725 0.0675 -1.04916e-16 0.4725 0.135 -1.04916e-16 0.4725 0.135 -8.99281e-17 0.405 0.0675 -8.99281e-17 0.405 8.23975e-09 -8.99281e-17 0.405 0.2025 -1.04916e-16 0.4725 0.2025 -8.99281e-17 0.405 0.2025 -7.49401e-17 0.3375 0.135 -7.49401e-17 0.3375 0.0675 -7.49401e-17 0.3375 8.23975e-09 -7.49401e-17 0.3375 0.4725 1.04916e-16 -0.4725 0.4725 1.19904e-16 -0.54 0.405 1.19904e-16 -0.54 0.405 1.04916e-16 -0.4725 0.405 8.99281e-17 -0.405 0.4725 8.99281e-17 -0.405 0.3375 1.19904e-16 -0.54 0.27 1.19904e-16 -0.54 0.3375 1.04916e-16 -0.4725 0.27 1.04916e-16 -0.4725 0.27 8.99281e-17 -0.405 0.3375 8.99281e-17 -0.405 0.27 7.49401e-17 -0.3375 0.27 5.9952e-17 -0.27 0.3375 7.49401e-17 -0.3375 0.3375 5.9952e-17 -0.27 0.405 5.9952e-17 -0.27 0.405 7.49401e-17 -0.3375 0.4725 5.9952e-17 -0.27 0.4725 7.49401e-17 -0.3375 0.0675 1.19904e-16 -0.54 8.23975e-09 1.19904e-16 -0.54 0.0675 1.04916e-16 -0.4725 8.23975e-09 1.04916e-16 -0.4725 8.23975e-09 8.99281e-17 -0.405 0.0675 8.99281e-17 -0.405 0.135 8.99281e-17 -0.405 0.135 1.04916e-16 -0.4725 0.135 1.19904e-16 -0.54 8.23975e-09 7.49401e-17 -0.3375 8.23975e-09 5.9952e-17 -0.27 0.0675 7.49401e-17 -0.3375 0.0675 5.9952e-17 -0.27 0.135 5.9952e-17 -0.27 0.135 7.49401e-17 -0.3375 0.2025 5.9952e-17 -0.27 0.2025 7.49401e-17 -0.3375 0.2025 8.99281e-17 -0.405 0.2025 1.04916e-16 -0.4725 0.2025 1.19904e-16 -0.54 8.23975e-09 1.4988e-17 -0.0675 0.0675 1.4988e-17 -0.0675 0.135 1.4988e-17 -0.0675 0.135 2.9976e-17 -0.135 0.0675 2.9976e-17 -0.135 8.23975e-09 2.9976e-17 -0.135 0.2025 1.4988e-17 -0.0675 0.27 1.4988e-17 -0.0675 0.27 2.9976e-17 -0.135 0.2025 2.9976e-17 -0.135 0.27 4.4964e-17 -0.2025 0.2025 4.4964e-17 -0.2025 0.135 4.4964e-17 -0.2025 0.0675 4.4964e-17 -0.2025 8.23975e-09 4.4964e-17 -0.2025 0.4725 1.4988e-17 -0.0675 0.4725 2.9976e-17 -0.135 0.405 2.9976e-17 -0.135 0.405 1.4988e-17 -0.0675 0.4725 4.4964e-17 -0.2025 0.405 4.4964e-17 -0.2025 0.3375 4.4964e-17 -0.2025 0.3375 2.9976e-17 -0.135 0.3375 1.4988e-17 -0.0675 -0.4725 1.19904e-16 -0.54 -0.54 1.19904e-16 -0.54 -0.4725 1.04916e-16 -0.4725 -0.54 1.04916e-16 -0.4725 -0.54 8.99281e-17 -0.405 -0.4725 8.99281e-17 -0.405 -0.405 8.99281e-17 -0.405 -0.405 1.04916e-16 -0.4725 -0.405 1.19904e-16 -0.54 -0.54 7.49401e-17 -0.3375 -0.54 5.9952e-17 -0.27 -0.4725 7.49401e-17 -0.3375 -0.4725 5.9952e-17 -0.27 -0.405 5.9952e-17 -0.27 -0.405 7.49401e-17 -0.3375 -0.3375 5.9952e-17 -0.27 -0.27 5.9952e-17 -0.27 -0.3375 7.49401e-17 -0.3375 -0.27 7.49401e-17 -0.3375 -0.27 8.99281e-17 -0.405 -0.3375 8.99281e-17 -0.405 -0.27 1.04916e-16 -0.4725 -0.27 1.19904e-16 -0.54 -0.3375 1.04916e-16 -0.4725 -0.3375 1.19904e-16 -0.54 -0.54 1.4988e-17 -0.0675 -0.54 0 -8.23975e-09 -0.4725 1.4988e-17 -0.0675 -0.4725 0 -8.23975e-09 -0.405 0 -8.23975e-09 -0.405 1.4988e-17 -0.0675 -0.405 2.9976e-17 -0.135 -0.4725 2.9976e-17 -0.135 -0.54 2.9976e-17 -0.135 -0.3375 0 -8.23975e-09 -0.27 0 -8.23975e-09 -0.3375 1.4988e-17 -0.0675 -0.27 1.4988e-17 -0.0675 -0.27 2.9976e-17 -0.135 -0.3375 2.9976e-17 -0.135 -0.27 4.4964e-17 -0.2025 -0.3375 4.4964e-17 -0.2025 -0.405 4.4964e-17 -0.2025 -0.4725 4.4964e-17 -0.2025 -0.54 4.4964e-17 -0.2025 -0.0675 0 -8.23975e-09 -0.0675 1.4988e-17 -0.0675 -0.0675 2.9976e-17 -0.135 -0.135 2.9976e-17 -0.135 -0.135 1.4988e-17 -0.0675 -0.135 0 -8.23975e-09 -0.0675 4.4964e-17 -0.2025 -0.0675 5.9952e-17 -0.27 -0.135 5.9952e-17 -0.27 -0.135 4.4964e-17 -0.2025 -0.2025 5.9952e-17 -0.27 -0.2025 4.4964e-17 -0.2025 -0.2025 2.9976e-17 -0.135 -0.2025 1.4988e-17 -0.0675 -0.2025 0 -8.23975e-09 -0.0675 1.04916e-16 -0.4725 -0.0675 1.19904e-16 -0.54 -0.135 1.19904e-16 -0.54 -0.135 1.04916e-16 -0.4725 -0.135 8.99281e-17 -0.405 -0.0675 8.99281e-17 -0.405 -0.2025 1.19904e-16 -0.54 -0.2025 1.04916e-16 -0.4725 -0.2025 8.99281e-17 -0.405 -0.2025 7.49401e-17 -0.3375 -0.135 7.49401e-17 -0.3375 -0.0675 7.49401e-17 -0.3375 -0.54 -1.04916e-16 0.4725 -0.4725 -1.04916e-16 0.4725 -0.405 -1.04916e-16 0.4725 -0.405 -8.99281e-17 0.405 -0.4725 -8.99281e-17 0.405 -0.54 -8.99281e-17 0.405 -0.3375 -1.04916e-16 0.4725 -0.27 -1.04916e-16 0.4725 -0.27 -8.99281e-17 0.405 -0.3375 -8.99281e-17 0.405 -0.27 -7.49401e-17 0.3375 -0.27 -5.9952e-17 0.27 -0.3375 -7.49401e-17 0.3375 -0.3375 -5.9952e-17 0.27 -0.405 -5.9952e-17 0.27 -0.405 -7.49401e-17 0.3375 -0.4725 -5.9952e-17 0.27 -0.54 -5.9952e-17 0.27 -0.4725 -7.49401e-17 0.3375 -0.54 -7.49401e-17 0.3375 -0.0675 -1.04916e-16 0.4725 -0.0675 -8.99281e-17 0.405 -0.135 -8.99281e-17 0.405 -0.135 -1.04916e-16 0.4725 -0.0675 -7.49401e-17 0.3375 -0.0675 -5.9952e-17 0.27 -0.135 -5.9952e-17 0.27 -0.135 -7.49401e-17 0.3375 -0.2025 -5.9952e-17 0.27 -0.2025 -7.49401e-17 0.3375 -0.2025 -8.99281e-17 0.405 -0.2025 -1.04916e-16 0.4725 -0.0675 -1.4988e-17 0.0675 -0.135 -1.4988e-17 0.0675 -0.135 -2.9976e-17 0.135 -0.0675 -2.9976e-17 0.135 -0.2025 -1.4988e-17 0.0675 -0.27 -1.4988e-17 0.0675 -0.27 -2.9976e-17 0.135 -0.2025 -2.9976e-17 0.135 -0.27 -4.4964e-17 0.2025 -0.2025 -4.4964e-17 0.2025 -0.135 -4.4964e-17 0.2025 -0.0675 -4.4964e-17 0.2025 -0.4725 -1.4988e-17 0.0675 -0.54 -1.4988e-17 0.0675 -0.54 -2.9976e-17 0.135 -0.4725 -2.9976e-17 0.135 -0.405 -2.9976e-17 0.135 -0.405 -1.4988e-17 0.0675 -0.54 -4.4964e-17 0.2025 -0.4725 -4.4964e-17 0.2025 -0.405 -4.4964e-17 0.2025 -0.3375 -4.4964e-17 0.2025 -0.3375 -2.9976e-17 0.135 -0.3375 -1.4988e-17 0.0675</float_array>
                    <technique_common>
                        <accessor count="256" source="#shape0-lib-positions-array" stride="3">
                            <param name="X" type="float"/>
                            <param name="Y" type="float"/>
                            <param name="Z" type="float"/>
                        </accessor>
                    </technique_common>
                </source>
                <source id="shape0-lib-normals" name="normal">
                    <float_array id="shape0-lib-normals-array" count="1350">0 1 2.22045e-16 0 1 2.22045e-16 0 1 2.22045e-16 0 1 2.22045e-16 0 1 2.22045e-16 0 1 2.22045e-16 0 1 2.22045e-16 0 1 2.22045e-16 0 1 2.22045e-16 0 1 2.22045e-16 0 1 2.22045e-16 0 1 2.22045e-16 0 1 2.22045e-16 0 1 2.22045e-16 0 1 2.22045e-16 0 1 2.22045e-16 0 1 2.22045e-16 0 1 2.22045e-16 0 1 2.22045e-16 0 1 2.22045e-16 0 1 2.22045e-16 0 1 2.22045e-16 0 1 2.22045e-16 0 1 2.22045e-16 0 1 2.22045e-16 0 1 2.22045e-16 0 1 2.22045e-16 0 1 2.22045e-16 0 1 2.22045e-16 0 1 2.22045e-16 0 1 2.22045e-16 0 1 2.22045e-16 0 1 2.22045e-16 0 1 2.22045e-16 0 1 2.22045e-16 0 1 2.22045e-16 0 1 2.22045e-16 0 1 2.22045e-16 0 1 2.22045e-16 0 1 2.22045e-16 0 1 2.22045e-16 0 1 2.22045e-16 0 1 2.22045e-16 0 1 2.22045e-16 0 1 2.22045e-16 0 1 2.22045e-16 0 1 2.22045e-16 0 1 2.22045e-16 0 1 2.22045e-16 0 1 2.22045e-16 0 1 2.22045e-16 0 1 2.22045e-16 0 1 2.22045e-16 0 1 2.22045e-16 0 1 2.22045e-16 0 1 2.22045e-16 0 1 2.22045e-16 0 1 2.22045e-16 0 1 2.22045e-16 0 1 2.22045e-16 0 1 2.22045e-16 0 1 2.22045e-16 0 1 2.22045e-16 0 1 2.22045e-16 0 1 2.22045e-16 0 1 2.22045e-16 0 1 2.22045e-16 0 1 2.22045e-16 0 1 2.22045e-16 0 1 2.22045e-16 0 1 2.22045e-16 0 1 2.22045e-16 0 1 2.22045e-16 0 1 2.22045e-16 0 1 2.22045e-16 0 1 2.22045e-16 0 1 2.22045e-16 0 1 2.22045e-16 0 1 2.22045e-16 0 1 2.22045e-16 0 1 2.22045e-16 0 1 2.22045e-16 0 1 2.22045e-16 0 1 2.22045e-16 0 1 2.22045e-16 0 1 2.22045e-16 0 1 2.22045e-16 0 1 2.22045e-16 0 1 2.22045e-16 0 1 2.22045e-16 0 1 2.22045e-16 0 1 2.22045e-16 0 1 2.22045e-16 0 1 2.22045e-16 0 1 2.22045e-16 0 1 2.22045e-16 0 1 2.22045e-16 0 1 2.22045e-16 0 1 2.22045e-16 0 1 2.22045e-16 0 1 2.22045e-16 0 1 2.22045e-16 0 1 2.22045e-16 0 1 2.22045e-16 0 1 2.22045e-16 0 1 2.22045e-16 0 1 2.22045e-16 0 1 2.22045e-16 0 1 2.22045e-16 0 1 2.22045e-16 0 1 2.22045e-16 0 1 2.22045e-16 0 1 2.22045e-16 0 1 2.22045e-16 0 1 2.22045e-16 0 1 2.22045e-16 0 1 2.22045e-16 0 1 2.22045e-16 0 1 2.22045e-16 0 1 2.22045e-16 0 1 2.22045e-16 0 1 2.22045e-16 0 1 2.22045e-16 0 1 2.22045e-16 0 1 2.22045e-16 0 1 2.22045e-16 0 1 2.22045e-16 0 1 2.22045e-16 0 1 2.22045e-16 0 1 2.22045e-16 0 1 2.22045e-16 0 1 2.22045e-16 0 1 2.22045e-16 0 1 2.22045e-16 0 1 2.22045e-16 0 1 2.22045e-16 0 1 2.22045e-16 0 1 2.22045e-16 0 1 2.22045e-16 0 1 2.22045e-16 0 1 2.22045e-16 0 1 2.22045e-16 0 1 2.22045e-16 0 1 2.22045e-16 0 1 2.22045e-16 0 1 2.22045e-16 0 1 2.22045e-16 0 1 2.22045e-16 0 1 2.22045e-16 0 1 2.22045e-16 0 1 2.22045e-16 0 1 2.22045e-16 0 1 2.22045e-16 0 1 2.22045e-16 0 1 2.22045e-16 0 1 2.22045e-16 0 1 2.22045e-16 0 1 2.22045e-16 0 1 2.22045e-16 0 1 2.22045e-16 0 1 2.22045e-16 0 1 2.22045e-16 0 1 2.22045e-16 0 1 2.22045e-16 0 1 2.22045e-16 0 1 2.22045e-16 0 1 2.22045e-16 0 1 2.22045e-16 0 1 2.22045e-16 0 1 2.22045e-16 0 1 2.22045e-16 0 1 2.22045e-16 0 1 2.22045e-16 0 1 2.22045e-16 0 1 2.22045e-16 0 1 2.22045e-16 0 1 2.22045e-16 0 1 2.22045e-16 0 1 2.22045e-16 0 1 2.22045e-16 0 1 2.22045e-16 0 1 2.22045e-16 0 1 2.22045e-16 0 1 2.22045e-16 0 1 2.22045e-16 0 1 2.22045e-16 0 1 2.22045e-16 0 1 2.22045e-16 0 1 2.22045e-16 0 1 2.22045e-16 0 1 2.22045e-16 0 1 2.22045e-16 0 1 2.22045e-16 0 1 2.22045e-16 0 1 2.22045e-16 0 1 2.22045e-16 0 1 2.22045e-16 0 1 2.22045e-16 0 1 2.22045e-16 0 1 2.22045e-16 0 1 2.22045e-16 0 1 2.22045e-16 0 1 2.22045e-16 0 1 2.22045e-16 0 1 2.22045e-16 0 1 2.22045e-16 0 1 2.22045e-16 0 1 2.22045e-16 0 1 2.22045e-16 0 1 2.22045e-16 0 1 2.22045e-16 0 1 2.22045e-16 0 1 2.22045e-16 0 1 2.22045e-16 0 1 2.22045e-16 0 1 2.22045e-16 0 1 2.22045e-16 0 1 2.22045e-16 0 1 2.22045e-16 0 1 2.22045e-16 0 1 2.22045e-16 0 1 2.22045e-16 0 1 2.22045e-16 0 1 2.22045e-16 0 1 2.22045e-16 0 1 2.22045e-16 0 1 2.22045e-16 0 1 2.22045e-16 0 1 2.22045e-16 0 1 2.22045e-16 0 1 2.22045e-16 0 1 2.22045e-16 0 1 2.22045e-16 0 1 2.22045e-16 0 1 2.22045e-16 0 1 2.22045e-16 0 1 2.22045e-16 0 1 2.22045e-16 0 1 2.22045e-16 0 1 2.22045e-16 0 1 2.22045e-16 0 1 2.22045e-16 0 1 2.22045e-16 0 1 2.22045e-16 0 1 2.22045e-16 0 1 2.22045e-16 0 1 2.22045e-16 0 1 2.22045e-16 0 1 2.22045e-16 0 1 2.22045e-16 0 1 2.22045e-16 0 1 2.22045e-16 0 1 2.22045e-16 0 1 2.22045e-16 0 1 2.22045e-16 0 1 2.22045e-16 0 1 2.22045e-16 0 1 2.22045e-16 0 1 2.22045e-16 0 1 2.22045e-16 0 1 2.22045e-16 0 1 2.22045e-16 0 1 2.22045e-16 0 1 2.22045e-16 0 1 2.22045e-16 0 1 2.22045e-16 0 1 2.22045e-16 0 1 2.22045e-16 0 1 2.22045e-16 0 1 2.22045e-16 0 1 2.22045e-16 0 1 2.22045e-16 0 1 2.22045e-16 0 1 2.22045e-16 0 1 2.22045e-16 0 1 2.22045e-16 0 1 2.22045e-16 0 1 2.22045e-16 0 1 2.22045e-16 0 1 2.22045e-16 0 1 2.22045e-16 0 1 2.22045e-16 0 1 2.22045e-16 0 1 2.22045e-16 0 1 2.22045e-16 0 1 2.22045e-16 0 1 2.22045e-16 0 1 2.22045e-16 0 1 2.22045e-16 0 1 2.22045e-16 0 1 2.22045e-16 0 1 2.22045e-16 0 1 2.22045e-16 0 1 2.22045e-16 0 1 2.22045e-16 0 1 2.22045e-16 0 1 2.22045e-16 0 1 2.22045e-16 0 1 2.22045e-16 0 1 2.22045e-16 0 1 2.22045e-16 0 1 2.22045e-16 0 1 2.22045e-16 0 1 2.22045e-16 0 1 2.22045e-16 0 1 2.22045e-16 0 1 2.22045e-16 0 1 2.22045e-16 0 1 2.22045e-16 0 1 2.22045e-16 0 1 2.22045e-16 0 1 2.22045e-16 0 1 2.22045e-16 0 1 2.22045e-16 0 1 2.22045e-16 0 1 2.22045e-16 0 1 2.22045e-16 0 1 2.22045e-16 0 1 2.22045e-16 0 1 2.22045e-16 0 1 2.22045e-16 0 1 2.22045e-16 0 1 2.22045e-16 0 1 2.22045e-16 0 1 2.22045e-16 0 1 2.22045e-16 0 1 2.22045e-16 0 1 2.22045e-16 0 1 2.22045e-16 0 1 2.22045e-16 0 1 2.22045e-16 0 1 2.22045e-16 0 1 2.22045e-16 0 1 2.22045e-16 0 1 2.22045e-16 0 1 2.22045e-16 0 1 2.22045e-16 0 1 2.22045e-16 0 1 2.22045e-16 0 1 2.22045e-16 0 1 2.22045e-16 0 1 2.22045e-16 0 1 2.22045e-16 0 1 2.22045e-16 0 1 2.22045e-16 0 1 2.22045e-16 0 1 2.22045e-16 0 1 2.22045e-16 0 1 2.22045e-16 0 1 2.22045e-16 0 1 2.22045e-16 0 1 2.22045e-16 0 1 2.22045e-16 0 1 2.22045e-16 0 1 2.22045e-16 0 1 2.22045e-16 0 1 2.22045e-16 0 1 2.22045e-16 0 1 2.22045e-16 0 1 2.22045e-16 0 1 2.22045e-16 0 1 2.22045e-16 0 1 2.22045e-16 0 1 2.22045e-16 0 1 2.22045e-16 0 1 2.22045e-16 0 1 2.22045e-16 0 1 2.22045e-16 0 1 2.22045e-16 0 1 2.22045e-16 0 1 2.22045e-16 0 1 2.22045e-16 0 1 2.22045e-16 0 1 2.22045e-16 0 1 2.22045e-16 0 1 2.22045e-16 0 1 2.22045e-16 0 1 2.22045e-16 0 1 2.22045e-16 0 1 2.22045e-16 0 1 2.22045e-16 0 1 2.22045e-16 0 1 2.22045e-16 0 1 2.22045e-16 0 1 2.22045e-16 0 1 2.22045e-16 0 1 2.22045e-16 0 1 2.22045e-16 0 1 2.22045e-16 0 1 2.22045e-16 0 1 2.22045e-16 0 1 2.22045e-16 0 1 2.22045e-16 0 1 2.22045e-16 0 1 2.22045e-16 0 1 2.22045e-16 0 1 2.22045e-16 0 1 2.22045e-16 0 1 2.22045e-16 0 1 2.22045e-16 0 1 2.22045e-16 0 1 2.22045e-16 0 1 2.22045e-16 0 1 2.22045e-16 0 1 2.22045e-16 0 1 2.22045e-16 0 1 2.22045e-16 0 1 2.22045e-16 0 1 2.22045e-16 0 1 2.22045e-16 0 1 2.22045e-16 0 1 2.22045e-16 0 1 2.22045e-16 0 1 2.22045e-16 0 1 2.22045e-16 0 1 2.22045e-16 0 1 2.22045e-16 0 1 2.22045e-16 0 1 2.22045e-16 0 1 2.22045e-16 0 1 2.22045e-16 0 1 2.22045e-16 0 1 2.22045e-16 0 1 2.22045e-16 0 1 2.22045e-16 0 1 2.22045e-16 0 1 2.22045e-16 0 1 2.22045e-16 0 1 2.22045e-16 0 1 2.22045e-16 0 1 2.22045e-16 0 1 2.22045e-16 0 1 2.22045e-16 0 1 2.22045e-16 0 1 2.22045e-16 0 1 2.22045e-16 0 1 2.22045e-16 0 1 2.22045e-16 0 1 2.22045e-16 0 1 2.22045e-16 0 1 2.22045e-16 0 1 2.22045e-16 0 1 2.22045e-16 0 1 2.22045e-16 0 1 2.22045e-16 0 1 2.22045e-16 0 1 2.22045e-16 0 1 2.22045e-16 0 1 2.22045e-16 0 1 2.22045e-16</float_array>
                    <technique_common>
                        <accessor count="450" source="#shape0-lib-normals-array" stride="3">
                            <param name="X" type="float"/>
                            <param name="Y" type="float"/>
                            <param name="Z" type="float"/>
                        </accessor>
                    </technique_common>
                </source>
                <source id="shape0-lib-map" name="map">
                    <float_array id="shape0-lib-map-array" count="2700">0.9375 0.12422 0.875 0.12422 0.9375 0.06211 0.9375 0.06211 0.875 0.12422 0.875 0.06211 0.9375 0.24844 0.875 0.24844 0.9375 0.18633 0.9375 0.18633 0.875 0.24844 0.875 0.18633 0.875 0.18633 0.875 0.12422 0.9375 0.18633 0.9375 0.18633 0.875 0.12422 0.9375 0.12422 0.8125 0.24844 0.75 0.24844 0.8125 0.18633 0.8125 0.18633 0.75 0.24844 0.75 0.18633 0.75 0.18633 0.75 0.12422 0.8125 0.18633 0.8125 0.18633 0.75 0.12422 0.8125 0.12422 0.8125 0.12422 0.875 0.12422 0.8125 0.18633 0.8125 0.18633 0.875 0.12422 0.875 0.18633 0.875 0.18633 0.875 0.24844 0.8125 0.18633 0.8125 0.18633 0.875 0.24844 0.8125 0.24844 0.875 0.06211 0.875 0.12422 0.8125 0.06211 0.8125 0.06211 0.875 0.12422 0.8125 0.12422 0.8125 0.12422 0.75 0.12422 0.8125 0.06211 0.8125 0.06211 0.75 0.12422 0.75 0.06211 0.9375 0.49688 0.875 0.49688 0.9375 0.43477 0.9375 0.43477 0.875 0.49688 0.875 0.43477 0.875 0.43477 0.875 0.37266 0.9375 0.43477 0.9375 0.43477 0.875 0.37266 0.9375 0.37266 0.8125 0.49688 0.75 0.49688 0.8125 0.43477 0.8125 0.43477 0.75 0.49688 0.75 0.43477 0.75 0.43477 0.75 0.37266 0.8125 0.43477 0.8125 0.43477 0.75 0.37266 0.8125 0.37266 0.8125 0.37266 0.875 0.37266 0.8125 0.43477 0.8125 0.43477 0.875 0.37266 0.875 0.43477 0.875 0.43477 0.875 0.49688 0.8125 0.43477 0.8125 0.43477 0.875 0.49688 0.8125 0.49688 0.75 0.31055 0.75 0.24844 0.8125 0.31055 0.8125 0.31055 0.75 0.24844 0.8125 0.24844 0.8125 0.24844 0.875 0.24844 0.8125 0.31055 0.8125 0.31055 0.875 0.24844 0.875 0.31055 0.875 0.31055 0.875 0.37266 0.8125 0.31055 0.8125 0.31055 0.875 0.37266 0.8125 0.37266 0.8125 0.37266 0.75 0.37266 0.8125 0.31055 0.8125 0.31055 0.75 0.37266 0.75 0.31055 0.9375 0.37266 0.875 0.37266 0.9375 0.31055 0.9375 0.31055 0.875 0.37266 0.875 0.31055 0.875 0.31055 0.875 0.24844 0.9375 0.31055 0.9375 0.31055 0.875 0.24844 0.9375 0.24844 0.5625 0.49688 0.5 0.49688 0.5625 0.43477 0.5625 0.43477 0.5 0.49688 0.5 0.43477 0.5 0.43477 0.5 0.37266 0.5625 0.43477 0.5625 0.43477 0.5 0.37266 0.5625 0.37266 0.5625 0.37266 0.625 0.37266 0.5625 0.43477 0.5625 0.43477 0.625 0.37266 0.625 0.43477 0.625 0.43477 0.625 0.49688 0.5625 0.43477 0.5625 0.43477 0.625 0.49688 0.5625 0.49688 0.5 0.31055 0.5 0.24844 0.5625 0.31055 0.5625 0.31055 0.5 0.24844 0.5625 0.24844 0.5625 0.24844 0.625 0.24844 0.5625 0.31055 0.5625 0.31055 0.625 0.24844 0.625 0.31055 0.625 0.31055 0.625 0.37266 0.5625 0.31055 0.5625 0.31055 0.625 0.37266 0.5625 0.37266 0.5625 0.37266 0.5 0.37266 0.5625 0.31055 0.5625 0.31055 0.5 0.37266 0.5 0.31055 0.6875 0.24844 0.75 0.24844 0.6875 0.31055 0.6875 0.31055 0.75 0.24844 0.75 0.31055 0.75 0.31055 0.75 0.37266 0.6875 0.31055 0.6875 0.31055 0.75 0.37266 0.6875 0.37266 0.6875 0.37266 0.625 0.37266 0.6875 0.31055 0.6875 0.31055 0.625 0.37266 0.625 0.31055 0.625 0.31055 0.625 0.24844 0.6875 0.31055 0.6875 0.31055 0.625 0.24844 0.6875 0.24844 0.75 0.43477 0.75 0.49688 0.6875 0.43477 0.6875 0.43477 0.75 0.49688 0.6875 0.49688 0.6875 0.49688 0.625 0.49688 0.6875 0.43477 0.6875 0.43477 0.625 0.49688 0.625 0.43477 0.625 0.43477 0.625 0.37266 0.6875 0.43477 0.6875 0.43477 0.625 0.37266 0.6875 0.37266 0.6875 0.37266 0.75 0.37266 0.6875 0.43477 0.6875 0.43477 0.75 0.37266 0.75 0.43477 0.625 0.06211 0.625 0.12422 0.5625 0.06211 0.5625 0.06211 0.625 0.12422 0.5625 0.12422 0.5625 0.12422 0.5 0.12422 0.5625 0.06211 0.5625 0.06211 0.5 0.12422 0.5 0.06211 0.75 0.06211 0.75 0.12422 0.6875 0.06211 0.6875 0.06211 0.75 0.12422 0.6875 0.12422 0.6875 0.12422 0.625 0.12422 0.6875 0.06211 0.6875 0.06211 0.625 0.12422 0.625 0.06211 0.75 0.18633 0.75 0.24844 0.6875 0.18633 0.6875 0.18633 0.75 0.24844 0.6875 0.24844 0.6875 0.24844 0.625 0.24844 0.6875 0.18633 0.6875 0.18633 0.625 0.24844 0.625 0.18633 0.625 0.18633 0.625 0.12422 0.6875 0.18633 0.6875 0.18633 0.625 0.12422 0.6875 0.12422 0.6875 0.12422 0.75 0.12422 0.6875 0.18633 0.6875 0.18633 0.75 0.12422 0.75 0.18633 0.5625 0.24844 0.5 0.24844 0.5625 0.18633 0.5625 0.18633 0.5 0.24844 0.5 0.18633 0.5 0.18633 0.5 0.12422 0.5625 0.18633 0.5625 0.18633 0.5 0.12422 0.5625 0.12422 0.5625 0.12422 0.625 0.12422 0.5625 0.18633 0.5625 0.18633 0.625 0.12422 0.625 0.18633 0.625 0.18633 0.625 0.24844 0.5625 0.18633 0.5625 0.18633 0.625 0.24844 0.5625 0.24844 0.9375 0.99376 0.875 0.99376 0.9375 0.93165 0.9375 0.93165 0.875 0.99376 0.875 0.93165 0.875 0.93165 0.875 0.86954 0.9375 0.93165 0.9375 0.93165 0.875 0.86954 0.9375 0.86954 0.8125 0.99376 0.75 0.99376 0.8125 0.93165 0.8125 0.93165 0.75 0.99376 0.75 0.93165 0.75 0.93165 0.75 0.86954 0.8125 0.93165 0.8125 0.93165 0.75 0.86954 0.8125 0.86954 0.8125 0.86954 0.875 0.86954 0.8125 0.93165 0.8125 0.93165 0.875 0.86954 0.875 0.93165 0.875 0.93165 0.875 0.99376 0.8125 0.93165 0.8125 0.93165 0.875 0.99376 0.8125 0.99376 0.75 0.80743 0.75 0.74532 0.8125 0.80743 0.8125 0.80743 0.75 0.74532 0.8125 0.74532 0.8125 0.74532 0.875 0.74532 0.8125 0.80743 0.8125 0.80743 0.875 0.74532 0.875 0.80743 0.875 0.80743 0.875 0.86954 0.8125 0.80743 0.8125 0.80743 0.875 0.86954 0.8125 0.86954 0.8125 0.86954 0.75 0.86954 0.8125 0.80743 0.8125 0.80743 0.75 0.86954 0.75 0.80743 0.9375 0.86954 0.875 0.86954 0.9375 0.80743 0.9375 0.80743 0.875 0.86954 0.875 0.80743 0.875 0.80743 0.875 0.74532 0.9375 0.80743 0.9375 0.80743 0.875 0.74532 0.9375 0.74532 0.5625 0.99376 0.5 0.99376 0.5625 0.93165 0.5625 0.93165 0.5 0.99376 0.5 0.93165 0.5 0.93165 0.5 0.86954 0.5625 0.93165 0.5625 0.93165 0.5 0.86954 0.5625 0.86954 0.5625 0.86954 0.625 0.86954 0.5625 0.93165 0.5625 0.93165 0.625 0.86954 0.625 0.93165 0.625 0.93165 0.625 0.99376 0.5625 0.93165 0.5625 0.93165 0.625 0.99376 0.5625 0.99376 0.5 0.80743 0.5 0.74532 0.5625 0.80743 0.5625 0.80743 0.5 0.74532 0.5625 0.74532 0.5625 0.74532 0.625 0.74532 0.5625 0.80743 0.5625 0.80743 0.625 0.74532 0.625 0.80743 0.625 0.80743 0.625 0.86954 0.5625 0.80743 0.5625 0.80743 0.625 0.86954 0.5625 0.86954 0.5625 0.86954 0.5 0.86954 0.5625 0.80743 0.5625 0.80743 0.5 0.86954 0.5 0.80743 0.6875 0.74532 0.75 0.74532 0.6875 0.80743 0.6875 0.80743 0.75 0.74532 0.75 0.80743 0.75 0.80743 0.75 0.86954 0.6875 0.80743 0.6875 0.80743 0.75 0.86954 0.6875 0.86954 0.6875 0.86954 0.625 0.86954 0.6875 0.80743 0.6875 0.80743 0.625 0.86954 0.625 0.80743 0.625 0.80743 0.625 0.74532 0.6875 0.80743 0.6875 0.80743 0.625 0.74532 0.6875 0.74532 0.75 0.93165 0.75 0.99376 0.6875 0.93165 0.6875 0.93165 0.75 0.99376 0.6875 0.99376 0.6875 0.99376 0.625 0.99376 0.6875 0.93165 0.6875 0.93165 0.625 0.99376 0.625 0.93165 0.625 0.93165 0.625 0.86954 0.6875 0.93165 0.6875 0.93165 0.625 0.86954 0.6875 0.86954 0.6875 0.86954 0.75 0.86954 0.6875 0.93165 0.6875 0.93165 0.75 0.86954 0.75 0.93165 0.5 0.55899 0.5 0.49688 0.5625 0.55899 0.5625 0.55899 0.5 0.49688 0.5625 0.49688 0.5625 0.49688 0.625 0.49688 0.5625 0.55899 0.5625 0.55899 0.625 0.49688 0.625 0.55899 0.625 0.55899 0.625 0.6211 0.5625 0.55899 0.5625 0.55899 0.625 0.6211 0.5625 0.6211 0.5625 0.6211 0.5 0.6211 0.5625 0.55899 0.5625 0.55899 0.5 0.6211 0.5 0.55899 0.6875 0.49688 0.75 0.49688 0.6875 0.55899 0.6875 0.55899 0.75 0.49688 0.75 0.55899 0.75 0.55899 0.75 0.6211 0.6875 0.55899 0.6875 0.55899 0.75 0.6211 0.6875 0.6211 0.6875 0.6211 0.625 0.6211 0.6875 0.55899 0.6875 0.55899 0.625 0.6211 0.625 0.55899 0.625 0.55899 0.625 0.49688 0.6875 0.55899 0.6875 0.55899 0.625 0.49688 0.6875 0.49688 0.75 0.68321 0.75 0.74532 0.6875 0.68321 0.6875 0.68321 0.75 0.74532 0.6875 0.74532 0.6875 0.74532 0.625 0.74532 0.6875 0.68321 0.6875 0.68321 0.625 0.74532 0.625 0.68321 0.625 0.68321 0.625 0.6211 0.6875 0.68321 0.6875 0.68321 0.625 0.6211 0.6875 0.6211 0.6875 0.6211 0.75 0.6211 0.6875 0.68321 0.6875 0.68321 0.75 0.6211 0.75 0.68321 0.5625 0.74532 0.5 0.74532 0.5625 0.68321 0.5625 0.68321 0.5 0.74532 0.5 0.68321 0.5 0.68321 0.5 0.6211 0.5625 0.68321 0.5625 0.68321 0.5 0.6211 0.5625 0.6211 0.5625 0.6211 0.625 0.6211 0.5625 0.68321 0.5625 0.68321 0.625 0.6211 0.625 0.68321 0.625 0.68321 0.625 0.74532 0.5625 0.68321 0.5625 0.68321 0.625 0.74532 0.5625 0.74532 0.9375 0.6211 0.875 0.6211 0.9375 0.55899 0.9375 0.55899 0.875 0.6211 0.875 0.55899 0.875 0.55899 0.875 0.49688 0.9375 0.55899 0.9375 0.55899 0.875 0.49688 0.9375 0.49688 0.9375 0.74532 0.875 0.74532 0.9375 0.68321 0.9375 0.68321 0.875 0.74532 0.875 0.68321 0.875 0.68321 0.875 0.6211 0.9375 0.68321 0.9375 0.68321 0.875 0.6211 0.9375 0.6211 0.8125 0.74532 0.75 0.74532 0.8125 0.68321 0.8125 0.68321 0.75 0.74532 0.75 0.68321 0.75 0.68321 0.75 0.6211 0.8125 0.68321 0.8125 0.68321 0.75 0.6211 0.8125 0.6211 0.8125 0.6211 0.875 0.6211 0.8125 0.68321 0.8125 0.68321 0.875 0.6211 0.875 0.68321 0.875 0.68321 0.875 0.74532 0.8125 0.68321 0.8125 0.68321 0.875 0.74532 0.8125 0.74532 0.75 0.55899 0.75 0.49688 0.8125 0.55899 0.8125 0.55899 0.75 0.49688 0.8125 0.49688 0.8125 0.49688 0.875 0.49688 0.8125 0.55899 0.8125 0.55899 0.875 0.49688 0.875 0.55899 0.875 0.55899 0.875 0.6211 0.8125 0.55899 0.8125 0.55899 0.875 0.6211 0.8125 0.6211 0.8125 0.6211 0.75 0.6211 0.8125 0.55899 0.8125 0.55899 0.75 0.6211 0.75 0.55899 0.0625 0.99376 0 0.99376 0.0625 0.93165 0.0625 0.93165 0 0.99376 0 0.93165 0 0.93165 0 0.86954 0.0625 0.93165 0.0625 0.93165 0 0.86954 0.0625 0.86954 0.0625 0.86954 0.125 0.86954 0.0625 0.93165 0.0625 0.93165 0.125 0.86954 0.125 0.93165 0.125 0.93165 0.125 0.99376 0.0625 0.93165 0.0625 0.93165 0.125 0.99376 0.0625 0.99376 0 0.80743 0 0.74532 0.0625 0.80743 0.0625 0.80743 0 0.74532 0.0625 0.74532 0.0625 0.74532 0.125 0.74532 0.0625 0.80743 0.0625 0.80743 0.125 0.74532 0.125 0.80743 0.125 0.80743 0.125 0.86954 0.0625 0.80743 0.0625 0.80743 0.125 0.86954 0.0625 0.86954 0.0625 0.86954 0 0.86954 0.0625 0.80743 0.0625 0.80743 0 0.86954 0 0.80743 0.1875 0.74532 0.25 0.74532 0.1875 0.80743 0.1875 0.80743 0.25 0.74532 0.25 0.80743 0.25 0.80743 0.25 0.86954 0.1875 0.80743 0.1875 0.80743 0.25 0.86954 0.1875 0.86954 0.1875 0.86954 0.125 0.86954 0.1875 0.80743 0.1875 0.80743 0.125 0.86954 0.125 0.80743 0.125 0.80743 0.125 0.74532 0.1875 0.80743 0.1875 0.80743 0.125 0.74532 0.1875 0.74532 0.25 0.93165 0.25 0.99376 0.1875 0.93165 0.1875 0.93165 0.25 0.99376 0.1875 0.99376 0.1875 0.99376 0.125 0.99376 0.1875 0.93165 0.1875 0.93165 0.125 0.99376 0.125 0.93165 0.125 0.93165 0.125 0.86954 0.1875 0.93165 0.1875 0.93165 0.125 0.86954 0.1875 0.86954 0.1875 0.86954 0.25 0.86954 0.1875 0.93165 0.1875 0.93165 0.25 0.86954 0.25 0.93165 0 0.55899 0 0.49688 0.0625 0.55899 0.0625 0.55899 0 0.49688 0.0625 0.49688 0.0625 0.49688 0.125 0.49688 0.0625 0.55899 0.0625 0.55899 0.125 0.49688 0.125 0.55899 0.125 0.55899 0.125 0.6211 0.0625 0.55899 0.0625 0.55899 0.125 0.6211 0.0625 0.6211 0.0625 0.6211 0 0.6211 0.0625 0.55899 0.0625 0.55899 0 0.6211 0 0.55899 0.1875 0.49688 0.25 0.49688 0.1875 0.55899 0.1875 0.55899 0.25 0.49688 0.25 0.55899 0.25 0.55899 0.25 0.6211 0.1875 0.55899 0.1875 0.55899 0.25 0.6211 0.1875 0.6211 0.1875 0.6211 0.125 0.6211 0.1875 0.55899 0.1875 0.55899 0.125 0.6211 0.125 0.55899 0.125 0.55899 0.125 0.49688 0.1875 0.55899 0.1875 0.55899 0.125 0.49688 0.1875 0.49688 0.25 0.68321 0.25 0.74532 0.1875 0.68321 0.1875 0.68321 0.25 0.74532 0.1875 0.74532 0.1875 0.74532 0.125 0.74532 0.1875 0.68321 0.1875 0.68321 0.125 0.74532 0.125 0.68321 0.125 0.68321 0.125 0.6211 0.1875 0.68321 0.1875 0.68321 0.125 0.6211 0.1875 0.6211 0.1875 0.6211 0.25 0.6211 0.1875 0.68321 0.1875 0.68321 0.25 0.6211 0.25 0.68321 0.0625 0.74532 0 0.74532 0.0625 0.68321 0.0625 0.68321 0 0.74532 0 0.68321 0 0.68321 0 0.6211 0.0625 0.68321 0.0625 0.68321 0 0.6211 0.0625 0.6211 0.0625 0.6211 0.125 0.6211 0.0625 0.68321 0.0625 0.68321 0.125 0.6211 0.125 0.68321 0.125 0.68321 0.125 0.74532 0.0625 0.68321 0.0625 0.68321 0.125 0.74532 0.0625 0.74532 0.4375 0.49688 0.5 0.49688 0.4375 0.55899 0.4375 0.55899 0.5 0.49688 0.5 0.55899 0.5 0.55899 0.5 0.6211 0.4375 0.55899 0.4375 0.55899 0.5 0.6211 0.4375 0.6211 0.4375 0.6211 0.375 0.6211 0.4375 0.55899 0.4375 0.55899 0.375 0.6211 0.375 0.55899 0.375 0.55899 0.375 0.49688 0.4375 0.55899 0.4375 0.55899 0.375 0.49688 0.4375 0.49688 0.5 0.68321 0.5 0.74532 0.4375 0.68321 0.4375 0.68321 0.5 0.74532 0.4375 0.74532 0.4375 0.74532 0.375 0.74532 0.4375 0.68321 0.4375 0.68321 0.375 0.74532 0.375 0.68321 0.375 0.68321 0.375 0.6211 0.4375 0.68321 0.4375 0.68321 0.375 0.6211 0.4375 0.6211 0.4375 0.6211 0.5 0.6211 0.4375 0.68321 0.4375 0.68321 0.5 0.6211 0.5 0.68321 0.3125 0.74532 0.25 0.74532 0.3125 0.68321 0.3125 0.68321 0.25 0.74532 0.25 0.68321 0.25 0.68321 0.25 0.6211 0.3125 0.68321 0.3125 0.68321 0.25 0.6211 0.3125 0.6211 0.3125 0.6211 0.375 0.6211 0.3125 0.68321 0.3125 0.68321 0.375 0.6211 0.375 0.68321 0.375 0.68321 0.375 0.74532 0.3125 0.68321 0.3125 0.68321 0.375 0.74532 0.3125 0.74532 0.25 0.55899 0.25 0.49688 0.3125 0.55899 0.3125 0.55899 0.25 0.49688 0.3125 0.49688 0.3125 0.49688 0.375 0.49688 0.3125 0.55899 0.3125 0.55899 0.375 0.49688 0.375 0.55899 0.375 0.55899 0.375 0.6211 0.3125 0.55899 0.3125 0.55899 0.375 0.6211 0.3125 0.6211 0.3125 0.6211 0.25 0.6211 0.3125 0.55899 0.3125 0.55899 0.25 0.6211 0.25 0.55899 0.5 0.93165 0.5 0.99376 0.4375 0.93165 0.4375 0.93165 0.5 0.99376 0.4375 0.99376 0.4375 0.99376 0.375 0.99376 0.4375 0.93165 0.4375 0.93165 0.375 0.99376 0.375 0.93165 0.375 0.93165 0.375 0.86954 0.4375 0.93165 0.4375 0.93165 0.375 0.86954 0.4375 0.86954 0.4375 0.86954 0.5 0.86954 0.4375 0.93165 0.4375 0.93165 0.5 0.86954 0.5 0.93165 0.3125 0.99376 0.25 0.99376 0.3125 0.93165 0.3125 0.93165 0.25 0.99376 0.25 0.93165 0.25 0.93165 0.25 0.86954 0.3125 0.93165 0.3125 0.93165 0.25 0.86954 0.3125 0.86954 0.3125 0.86954 0.375 0.86954 0.3125 0.93165 0.3125 0.93165 0.375 0.86954 0.375 0.93165 0.375 0.93165 0.375 0.99376 0.3125 0.93165 0.3125 0.93165 0.375 0.99376 0.3125 0.99376 0.25 0.80743 0.25 0.74532 0.3125 0.80743 0.3125 0.80743 0.25 0.74532 0.3125 0.74532 0.3125 0.74532 0.375 0.74532 0.3125 0.80743 0.3125 0.80743 0.375 0.74532 0.375 0.80743 0.375 0.80743 0.375 0.86954 0.3125 0.80743 0.3125 0.80743 0.375 0.86954 0.3125 0.86954 0.3125 0.86954 0.25 0.86954 0.3125 0.80743 0.3125 0.80743 0.25 0.86954 0.25 0.80743 0.4375 0.74532 0.5 0.74532 0.4375 0.80743 0.4375 0.80743 0.5 0.74532 0.5 0.80743 0.5 0.80743 0.5 0.86954 0.4375 0.80743 0.4375 0.80743 0.5 0.86954 0.4375 0.86954 0.4375 0.86954 0.375 0.86954 0.4375 0.80743 0.4375 0.80743 0.375 0.86954 0.375 0.80743 0.375 0.80743 0.375 0.74532 0.4375 0.80743 0.4375 0.80743 0.375 0.74532 0.4375 0.74532 0.125 0.06211 0.125 0.12422 0.0625 0.06211 0.0625 0.06211 0.125 0.12422 0.0625 0.12422 0.0625 0.12422 0 0.12422 0.0625 0.06211 0.0625 0.06211 0 0.12422 0 0.06211 0.25 0.06211 0.25 0.12422 0.1875 0.06211 0.1875 0.06211 0.25 0.12422 0.1875 0.12422 0.1875 0.12422 0.125 0.12422 0.1875 0.06211 0.1875 0.06211 0.125 0.12422 0.125 0.06211 0.25 0.18633 0.25 0.24844 0.1875 0.18633 0.1875 0.18633 0.25 0.24844 0.1875 0.24844 0.1875 0.24844 0.125 0.24844 0.1875 0.18633 0.1875 0.18633 0.125 0.24844 0.125 0.18633 0.125 0.18633 0.125 0.12422 0.1875 0.18633 0.1875 0.18633 0.125 0.12422 0.1875 0.12422 0.1875 0.12422 0.25 0.12422 0.1875 0.18633 0.1875 0.18633 0.25 0.12422 0.25 0.18633 0.0625 0.24844 0 0.24844 0.0625 0.18633 0.0625 0.18633 0 0.24844 0 0.18633 0 0.18633 0 0.12422 0.0625 0.18633 0.0625 0.18633 0 0.12422 0.0625 0.12422 0.0625 0.12422 0.125 0.12422 0.0625 0.18633 0.0625 0.18633 0.125 0.12422 0.125 0.18633 0.125 0.18633 0.125 0.24844 0.0625 0.18633 0.0625 0.18633 0.125 0.24844 0.0625 0.24844 0.5 0.06211 0.5 0.12422 0.4375 0.06211 0.4375 0.06211 0.5 0.12422 0.4375 0.12422 0.4375 0.12422 0.375 0.12422 0.4375 0.06211 0.4375 0.06211 0.375 0.12422 0.375 0.06211 0.5 0.18633 0.5 0.24844 0.4375 0.18633 0.4375 0.18633 0.5 0.24844 0.4375 0.24844 0.4375 0.24844 0.375 0.24844 0.4375 0.18633 0.4375 0.18633 0.375 0.24844 0.375 0.18633 0.375 0.18633 0.375 0.12422 0.4375 0.18633 0.4375 0.18633 0.375 0.12422 0.4375 0.12422 0.4375 0.12422 0.5 0.12422 0.4375 0.18633 0.4375 0.18633 0.5 0.12422 0.5 0.18633 0.3125 0.24844 0.25 0.24844 0.3125 0.18633 0.3125 0.18633 0.25 0.24844 0.25 0.18633 0.25 0.18633 0.25 0.12422 0.3125 0.18633 0.3125 0.18633 0.25 0.12422 0.3125 0.12422 0.3125 0.12422 0.375 0.12422 0.3125 0.18633 0.3125 0.18633 0.375 0.12422 0.375 0.18633 0.375 0.18633 0.375 0.24844 0.3125 0.18633 0.3125 0.18633 0.375 0.24844 0.3125 0.24844 0.375 0.06211 0.375 0.12422 0.3125 0.06211 0.3125 0.06211 0.375 0.12422 0.3125 0.12422 0.3125 0.12422 0.25 0.12422 0.3125 0.06211 0.3125 0.06211 0.25 0.12422 0.25 0.06211 0.5 0.43477 0.5 0.49688 0.4375 0.43477 0.4375 0.43477 0.5 0.49688 0.4375 0.49688 0.4375 0.49688 0.375 0.49688 0.4375 0.43477 0.4375 0.43477 0.375 0.49688 0.375 0.43477 0.375 0.43477 0.375 0.37266 0.4375 0.43477 0.4375 0.43477 0.375 0.37266 0.4375 0.37266 0.4375 0.37266 0.5 0.37266 0.4375 0.43477 0.4375 0.43477 0.5 0.37266 0.5 0.43477 0.3125 0.49688 0.25 0.49688 0.3125 0.43477 0.3125 0.43477 0.25 0.49688 0.25 0.43477 0.25 0.43477 0.25 0.37266 0.3125 0.43477 0.3125 0.43477 0.25 0.37266 0.3125 0.37266 0.3125 0.37266 0.375 0.37266 0.3125 0.43477 0.3125 0.43477 0.375 0.37266 0.375 0.43477 0.375 0.43477 0.375 0.49688 0.3125 0.43477 0.3125 0.43477 0.375 0.49688 0.3125 0.49688 0.25 0.31055 0.25 0.24844 0.3125 0.31055 0.3125 0.31055 0.25 0.24844 0.3125 0.24844 0.3125 0.24844 0.375 0.24844 0.3125 0.31055 0.3125 0.31055 0.375 0.24844 0.375 0.31055 0.375 0.31055 0.375 0.37266 0.3125 0.31055 0.3125 0.31055 0.375 0.37266 0.3125 0.37266 0.3125 0.37266 0.25 0.37266 0.3125 0.31055 0.3125 0.31055 0.25 0.37266 0.25 0.31055 0.4375 0.24844 0.5 0.24844 0.4375 0.31055 0.4375 0.31055 0.5 0.24844 0.5 0.31055 0.5 0.31055 0.5 0.37266 0.4375 0.31055 0.4375 0.31055 0.5 0.37266 0.4375 0.37266 0.4375 0.37266 0.375 0.37266 0.4375 0.31055 0.4375 0.31055 0.375 0.37266 0.375 0.31055 0.375 0.31055 0.375 0.24844 0.4375 0.31055 0.4375 0.31055 0.375 0.24844 0.4375 0.24844 0.0625 0.49688 0 0.49688 0.0625 0.43477 0.0625 0.43477 0 0.49688 0 0.43477 0 0.43477 0 0.37266 0.0625 0.43477 0.0625 0.43477 0 0.37266 0.0625 0.37266 0.0625 0.37266 0.125 0.37266 0.0625 0.43477 0.0625 0.43477 0.125 0.37266 0.125 0.43477 0.125 0.43477 0.125 0.49688 0.0625 0.43477 0.0625 0.43477 0.125 0.49688 0.0625 0.49688 0 0.31055 0 0.24844 0.0625 0.31055 0.0625 0.31055 0 0.24844 0.0625 0.24844 0.0625 0.24844 0.125 0.24844 0.0625 0.31055 0.0625 0.31055 0.125 0.24844 0.125 0.31055 0.125 0.31055 0.125 0.37266 0.0625 0.31055 0.0625 0.31055 0.125 0.37266 0.0625 0.37266 0.0625 0.37266 0 0.37266 0.0625 0.31055 0.0625 0.31055 0 0.37266 0 0.31055 0.1875 0.24844 0.25 0.24844 0.1875 0.31055 0.1875 0.31055 0.25 0.24844 0.25 0.31055 0.25 0.31055 0.25 0.37266 0.1875 0.31055 0.1875 0.31055 0.25 0.37266 0.1875 0.37266 0.1875 0.37266 0.125 0.37266 0.1875 0.31055 0.1875 0.31055 0.125 0.37266 0.125 0.31055 0.125 0.31055 0.125 0.24844 0.1875 0.31055 0.1875 0.31055 0.125 0.24844 0.1875 0.24844 0.25 0.43477 0.25 0.49688 0.1875 0.43477 0.1875 0.43477 0.25 0.49688 0.1875 0.49688 0.1875 0.49688 0.125 0.49688 0.1875 0.43477 0.1875 0.43477 0.125 0.49688 0.125 0.43477 0.125 0.43477 0.125 0.37266 0.1875 0.43477 0.1875 0.43477 0.125 0.37266 0.1875 0.37266 0.1875 0.37266 0.25 0.37266 0.1875 0.43477 0.1875 0.43477 0.25 0.37266 0.25 0.43477</float_array>
                    <technique_common>
                        <accessor count="1350" source="#shape0-lib-map-array" stride="2">
                            <param name="U" type="float"/>
                            <param name="V" type="float"/>
                        </accessor>
                    </technique_common>
                </source>
                <vertices id="shape0-lib-vertices">
                    <input semantic="POSITION" source="#shape0-lib-positions"/>
                </vertices>
                <triangles count="450" material="material0">
                    <input offset="0" semantic="VERTEX" source="#shape0-lib-vertices"/>
                    <input offset="1" semantic="NORMAL" source="#shape0-lib-normals"/>
                    <input offset="2" semantic="TEXCOORD" source="#shape0-lib-map"/>
                    <p>1 0 0 2 0 1 0 0 2 0 1 3 2 1 4 3 1 5 5 2 6 6 2 7 4 2 8 4 3 9 6 3 10 7 3 11 7 4 12 2 4 13 4 4 14 4 5 15 2 5 16 1 5 17 8 6 18 9 6 19 10 6 20 10 7 21 9 7 22 11 7 23 11 8 24 12 8 25 10 8 26 10 9 27 12 9 28 13 9 29 13 10 30 2 10 31 10 10 32 10 11 33 2 11 34 7 11 35 7 12 36 6 12 37 10 12 38 10 13 39 6 13 40 8 13 41 3 14 42 2 14 43 15 14 44 15 15 45 2 15 46 13 15 47 13 16 48 12 16 49 15 16 50 15 17 51 12 17 52 14 17 53 17 18 54 18 18 55 16 18 56 16 19 57 18 19 58 19 19 59 19 20 60 20 20 61 16 20 62 16 21 63 20 21 64 21 21 65 22 22 66 23 22 67 24 22 68 24 23 69 23 23 70 25 23 71 25 24 72 26 24 73 24 24 74 24 25 75 26 25 76 27 25 77 27 26 78 20 26 79 24 26 80 24 27 81 20 27 82 19 27 83 19 28 84 18 28 85 24 28 86 24 29 87 18 29 88 22 29 89 28 30 90 9 30 91 29 30 92 29 31 93 9 31 94 8 31 95 8 32 96 6 32 97 29 32 98 29 33 99 6 33 100 30 33 101 30 34 102 20 34 103 29 34 104 29 35 105 20 35 106 27 35 107 27 36 108 26 36 109 29 36 110 29 37 111 26 37 112 28 37 113 21 38 114 20 38 115 31 38 116 31 39 117 20 39 118 30 39 119 30 40 120 6 40 121 31 40 122 31 41 123 6 41 124 5 41 125 32 42 126 33 42 127 34 42 128 34 43 129 33 43 130 35 43 131 35 44 132 36 44 133 34 44 134 34 45 135 36 45 136 37 45 137 37 46 138 38 46 139 34 46 140 34 47 141 38 47 142 39 47 143 39 48 144 40 48 145 34 48 146 34 49 147 40 49 148 32 49 149 41 50 150 42 50 151 43 50 152 43 51 153 42 51 154 44 51 155 44 52 156 45 52 157 43 52 158 43 53 159 45 53 160 46 53 161 46 54 162 38 54 163 43 54 164 43 55 165 38 55 166 37 55 167 37 56 168 36 56 169 43 56 170 43 57 171 36 57 172 41 57 173 47 58 174 9 58 175 48 58 176 48 59 177 9 59 178 28 59 179 28 60 180 26 60 181 48 60 182 48 61 183 26 61 184 49 61 185 49 62 186 38 62 187 48 62 188 48 63 189 38 63 190 46 63 191 46 64 192 45 64 193 48 64 194 48 65 195 45 65 196 47 65 197 25 66 198 23 66 199 50 66 200 50 67 201 23 67 202 51 67 203 51 68 204 40 68 205 50 68 206 50 69 207 40 69 208 39 69 209 39 70 210 38 70 211 50 70 212 50 71 213 38 71 214 49 71 215 49 72 216 26 72 217 50 72 218 50 73 219 26 73 220 25 73 221 54 74 222 55 74 223 53 74 224 53 75 225 55 75 226 56 75 227 56 76 228 57 76 229 53 76 230 53 77 231 57 77 232 52 77 233 14 78 234 12 78 235 58 78 236 58 79 237 12 79 238 59 79 239 59 80 240 55 80 241 58 80 242 58 81 243 55 81 244 54 81 245 11 82 246 9 82 247 60 82 248 60 83 249 9 83 250 47 83 251 47 84 252 45 84 253 60 84 254 60 85 255 45 85 256 61 85 257 61 86 258 55 86 259 60 86 260 60 87 261 55 87 262 59 87 263 59 88 264 12 88 265 60 88 266 60 89 267 12 89 268 11 89 269 44 90 270 42 90 271 62 90 272 62 91 273 42 91 274 63 91 275 63 92 276 57 92 277 62 92 278 62 93 279 57 93 280 56 93 281 56 94 282 55 94 283 62 94 284 62 95 285 55 95 286 61 95 287 61 96 288 45 96 289 62 96 290 62 97 291 45 97 292 44 97 293 65 98 294 66 98 295 64 98 296 64 99 297 66 99 298 67 99 299 67 100 300 68 100 301 64 100 302 64 101 303 68 101 304 69 101 305 70 102 306 71 102 307 72 102 308 72 103 309 71 103 310 73 103 311 73 104 312 74 104 313 72 104 314 72 105 315 74 105 316 75 105 317 75 106 318 68 106 319 72 106 320 72 107 321 68 107 322 67 107 323 67 108 324 66 108 325 72 108 326 72 109 327 66 109 328 70 109 329 76 110 330 77 110 331 78 110 332 78 111 333 77 111 334 79 111 335 79 112 336 80 112 337 78 112 338 78 113 339 80 113 340 81 113 341 81 114 342 68 114 343 78 114 344 78 115 345 68 115 346 75 115 347 75 116 348 74 116 349 78 116 350 78 117 351 74 117 352 76 117 353 69 118 354 68 118 355 83 118 356 83 119 357 68 119 358 81 119 359 81 120 360 80 120 361 83 120 362 83 121 363 80 121 364 82 121 365 84 122 366 85 122 367 86 122 368 86 123 369 85 123 370 87 123 371 87 124 372 88 124 373 86 124 374 86 125 375 88 125 376 89 125 377 89 126 378 90 126 379 86 126 380 86 127 381 90 127 382 91 127 383 91 128 384 92 128 385 86 128 386 86 129 387 92 129 388 84 129 389 93 130 390 94 130 391 95 130 392 95 131 393 94 131 394 96 131 395 96 132 396 97 132 397 95 132 398 95 133 399 97 133 400 98 133 401 98 134 402 90 134 403 95 134 404 95 135 405 90 135 406 89 135 407 89 136 408 88 136 409 95 136 410 95 137 411 88 137 412 93 137 413 99 138 414 77 138 415 100 138 416 100 139 417 77 139 418 76 139 419 76 140 420 74 140 421 100 140 422 100 141 423 74 141 424 101 141 425 101 142 426 90 142 427 100 142 428 100 143 429 90 143 430 98 143 431 98 144 432 97 144 433 100 144 434 100 145 435 97 145 436 99 145 437 73 146 438 71 146 439 102 146 440 102 147 441 71 147 442 103 147 443 103 148 444 92 148 445 102 148 446 102 149 447 92 149 448 91 149 449 91 150 450 90 150 451 102 150 452 102 151 453 90 151 454 101 151 455 101 152 456 74 152 457 102 152 458 102 153 459 74 153 460 73 153 461 104 154 462 33 154 463 105 154 464 105 155 465 33 155 466 32 155 467 32 156 468 40 156 469 105 156 470 105 157 471 40 157 472 106 157 473 106 158 474 107 158 475 105 158 476 105 159 477 107 159 478 108 159 479 108 160 480 109 160 481 105 160 482 105 161 483 109 161 484 104 161 485 51 162 486 23 162 487 110 162 488 110 163 489 23 163 490 111 163 491 111 164 492 112 164 493 110 164 494 110 165 495 112 165 496 113 165 497 113 166 498 107 166 499 110 166 500 110 167 501 107 167 502 106 167 503 106 168 504 40 168 505 110 168 506 110 169 507 40 169 508 51 169 509 114 170 510 77 170 511 115 170 512 115 171 513 77 171 514 99 171 515 99 172 516 97 172 517 115 172 518 115 173 519 97 173 520 116 173 521 116 174 522 107 174 523 115 174 524 115 175 525 107 175 526 113 175 527 113 176 528 112 176 529 115 176 530 115 177 531 112 177 532 114 177 533 96 178 534 94 178 535 117 178 536 117 179 537 94 179 538 118 179 539 118 180 540 109 180 541 117 180 542 117 181 543 109 181 544 108 181 545 108 182 546 107 182 547 117 182 548 117 183 549 107 183 550 116 183 551 116 184 552 97 184 553 117 184 554 117 185 555 97 185 556 96 185 557 120 186 558 121 186 559 119 186 560 119 187 561 121 187 562 122 187 563 122 188 564 18 188 565 119 188 566 119 189 567 18 189 568 17 189 569 82 190 570 80 190 571 123 190 572 123 191 573 80 191 574 124 191 575 124 192 576 121 192 577 123 192 578 123 193 579 121 193 580 120 193 581 79 194 582 77 194 583 125 194 584 125 195 585 77 195 586 114 195 587 114 196 588 112 196 589 125 196 590 125 197 591 112 197 592 126 197 593 126 198 594 121 198 595 125 198 596 125 199 597 121 199 598 124 199 599 124 200 600 80 200 601 125 200 602 125 201 603 80 201 604 79 201 605 111 202 606 23 202 607 127 202 608 127 203 609 23 203 610 22 203 611 22 204 612 18 204 613 127 204 614 127 205 615 18 205 616 122 205 617 122 206 618 121 206 619 127 206 620 127 207 621 121 207 622 126 207 623 126 208 624 112 208 625 127 208 626 127 209 627 112 209 628 111 209 629 128 210 630 129 210 631 130 210 632 130 211 633 129 211 634 131 211 635 131 212 636 132 212 637 130 212 638 130 213 639 132 213 640 133 213 641 133 214 642 134 214 643 130 214 644 130 215 645 134 215 646 135 215 647 135 216 648 136 216 649 130 216 650 130 217 651 136 217 652 128 217 653 137 218 654 138 218 655 139 218 656 139 219 657 138 219 658 140 219 659 140 220 660 141 220 661 139 220 662 139 221 663 141 221 664 142 221 665 142 222 666 134 222 667 139 222 668 139 223 669 134 223 670 133 223 671 133 224 672 132 224 673 139 224 674 139 225 675 132 225 676 137 225 677 143 226 678 144 226 679 145 226 680 145 227 681 144 227 682 146 227 683 146 228 684 147 228 685 145 228 686 145 229 687 147 229 688 148 229 689 148 230 690 134 230 691 145 230 692 145 231 693 134 231 694 142 231 695 142 232 696 141 232 697 145 232 698 145 233 699 141 233 700 143 233 701 149 234 702 150 234 703 151 234 704 151 235 705 150 235 706 152 235 707 152 236 708 136 236 709 151 236 710 151 237 711 136 237 712 135 237 713 135 238 714 134 238 715 151 238 716 151 239 717 134 239 718 148 239 719 148 240 720 147 240 721 151 240 722 151 241 723 147 241 724 149 241 725 153 242 726 154 242 727 155 242 728 155 243 729 154 243 730 156 243 731 156 244 732 157 244 733 155 244 734 155 245 735 157 245 736 158 245 737 158 246 738 159 246 739 155 246 740 155 247 741 159 247 742 160 247 743 160 248 744 161 248 745 155 248 746 155 249 747 161 249 748 153 249 749 162 250 750 163 250 751 164 250 752 164 251 753 163 251 754 165 251 755 165 252 756 166 252 757 164 252 758 164 253 759 166 253 760 167 253 761 167 254 762 159 254 763 164 254 764 164 255 765 159 255 766 158 255 767 158 256 768 157 256 769 164 256 770 164 257 771 157 257 772 162 257 773 168 258 774 144 258 775 169 258 776 169 259 777 144 259 778 143 259 779 143 260 780 141 260 781 169 260 782 169 261 783 141 261 784 170 261 785 170 262 786 159 262 787 169 262 788 169 263 789 159 263 790 167 263 791 167 264 792 166 264 793 169 264 794 169 265 795 166 265 796 168 265 797 140 266 798 138 266 799 171 266 800 171 267 801 138 267 802 172 267 803 172 268 804 161 268 805 171 268 806 171 269 807 161 269 808 160 269 809 160 270 810 159 270 811 171 270 812 171 271 813 159 271 814 170 271 815 170 272 816 141 272 817 171 272 818 171 273 819 141 273 820 140 273 821 173 274 822 33 274 823 174 274 824 174 275 825 33 275 826 104 275 827 104 276 828 109 276 829 174 276 830 174 277 831 109 277 832 175 277 833 175 278 834 176 278 835 174 278 836 174 279 837 176 279 838 177 279 839 177 280 840 178 280 841 174 280 842 174 281 843 178 281 844 173 281 845 118 282 846 94 282 847 179 282 848 179 283 849 94 283 850 180 283 851 180 284 852 181 284 853 179 284 854 179 285 855 181 285 856 182 285 857 182 286 858 176 286 859 179 286 860 179 287 861 176 287 862 175 287 863 175 288 864 109 288 865 179 288 866 179 289 867 109 289 868 118 289 869 183 290 870 144 290 871 184 290 872 184 291 873 144 291 874 168 291 875 168 292 876 166 292 877 184 292 878 184 293 879 166 293 880 185 293 881 185 294 882 176 294 883 184 294 884 184 295 885 176 295 886 182 295 887 182 296 888 181 296 889 184 296 890 184 297 891 181 297 892 183 297 893 165 298 894 163 298 895 186 298 896 186 299 897 163 299 898 187 299 899 187 300 900 178 300 901 186 300 902 186 301 903 178 301 904 177 301 905 177 302 906 176 302 907 186 302 908 186 303 909 176 303 910 185 303 911 185 304 912 166 304 913 186 304 914 186 305 915 166 305 916 165 305 917 87 306 918 85 306 919 188 306 920 188 307 921 85 307 922 189 307 923 189 308 924 190 308 925 188 308 926 188 309 927 190 309 928 191 309 929 191 310 930 192 310 931 188 310 932 188 311 933 192 311 934 193 311 935 193 312 936 88 312 937 188 312 938 188 313 939 88 313 940 87 313 941 194 314 942 150 314 943 195 314 944 195 315 945 150 315 946 149 315 947 149 316 948 147 316 949 195 316 950 195 317 951 147 317 952 196 317 953 196 318 954 192 318 955 195 318 956 195 319 957 192 319 958 191 319 959 191 320 960 190 320 961 195 320 962 195 321 963 190 321 964 194 321 965 146 322 966 144 322 967 197 322 968 197 323 969 144 323 970 183 323 971 183 324 972 181 324 973 197 324 974 197 325 975 181 325 976 198 325 977 198 326 978 192 326 979 197 326 980 197 327 981 192 327 982 196 327 983 196 328 984 147 328 985 197 328 986 197 329 987 147 329 988 146 329 989 180 330 990 94 330 991 199 330 992 199 331 993 94 331 994 93 331 995 93 332 996 88 332 997 199 332 998 199 333 999 88 333 1000 193 333 1001 193 334 1002 192 334 1003 199 334 1004 199 335 1005 192 335 1006 198 335 1007 198 336 1008 181 336 1009 199 336 1010 199 337 1011 181 337 1012 180 337 1013 202 338 1014 203 338 1015 201 338 1016 201 339 1017 203 339 1018 204 339 1019 204 340 1020 205 340 1021 201 340 1022 201 341 1023 205 341 1024 200 341 1025 207 342 1026 208 342 1027 206 342 1028 206 343 1029 208 343 1030 209 343 1031 209 344 1032 203 344 1033 206 344 1034 206 345 1035 203 345 1036 202 345 1037 210 346 1038 211 346 1039 212 346 1040 212 347 1041 211 347 1042 213 347 1043 213 348 1044 214 348 1045 212 348 1046 212 349 1047 214 349 1048 215 349 1049 215 350 1050 203 350 1051 212 350 1052 212 351 1053 203 351 1054 209 351 1055 209 352 1056 208 352 1057 212 352 1058 212 353 1059 208 353 1060 210 353 1061 216 354 1062 217 354 1063 218 354 1064 218 355 1065 217 355 1066 219 355 1067 219 356 1068 205 356 1069 218 356 1070 218 357 1071 205 357 1072 204 357 1073 204 358 1074 203 358 1075 218 358 1076 218 359 1077 203 359 1078 215 359 1079 215 360 1080 214 360 1081 218 360 1082 218 361 1083 214 361 1084 216 361 1085 52 362 1086 57 362 1087 220 362 1088 220 363 1089 57 363 1090 221 363 1091 221 364 1092 222 364 1093 220 364 1094 220 365 1095 222 365 1096 223 365 1097 63 366 1098 42 366 1099 224 366 1100 224 367 1101 42 367 1102 225 367 1103 225 368 1104 226 368 1105 224 368 1106 224 369 1107 226 369 1108 227 369 1109 227 370 1110 222 370 1111 224 370 1112 224 371 1113 222 371 1114 221 371 1115 221 372 1116 57 372 1117 224 372 1118 224 373 1119 57 373 1120 63 373 1121 228 374 1122 211 374 1123 229 374 1124 229 375 1125 211 375 1126 210 375 1127 210 376 1128 208 376 1129 229 376 1130 229 377 1131 208 377 1132 230 377 1133 230 378 1134 222 378 1135 229 378 1136 229 379 1137 222 379 1138 227 379 1139 227 380 1140 226 380 1141 229 380 1142 229 381 1143 226 381 1144 228 381 1145 223 382 1146 222 382 1147 231 382 1148 231 383 1149 222 383 1150 230 383 1151 230 384 1152 208 384 1153 231 384 1154 231 385 1155 208 385 1156 207 385 1157 35 386 1158 33 386 1159 232 386 1160 232 387 1161 33 387 1162 173 387 1163 173 388 1164 178 388 1165 232 388 1166 232 389 1167 178 389 1168 233 389 1169 233 390 1170 234 390 1171 232 390 1172 232 391 1173 234 391 1174 235 391 1175 235 392 1176 36 392 1177 232 392 1178 232 393 1179 36 393 1180 35 393 1181 187 394 1182 163 394 1183 236 394 1184 236 395 1185 163 395 1186 237 395 1187 237 396 1188 238 396 1189 236 396 1190 236 397 1191 238 397 1192 239 397 1193 239 398 1194 234 398 1195 236 398 1196 236 399 1197 234 399 1198 233 399 1199 233 400 1200 178 400 1201 236 400 1202 236 401 1203 178 401 1204 187 401 1205 240 402 1206 211 402 1207 241 402 1208 241 403 1209 211 403 1210 228 403 1211 228 404 1212 226 404 1213 241 404 1214 241 405 1215 226 405 1216 242 405 1217 242 406 1218 234 406 1219 241 406 1220 241 407 1221 234 407 1222 239 407 1223 239 408 1224 238 408 1225 241 408 1226 241 409 1227 238 409 1228 240 409 1229 225 410 1230 42 410 1231 243 410 1232 243 411 1233 42 411 1234 41 411 1235 41 412 1236 36 412 1237 243 412 1238 243 413 1239 36 413 1240 235 413 1241 235 414 1242 234 414 1243 243 414 1244 243 415 1245 234 415 1246 242 415 1247 242 416 1248 226 416 1249 243 416 1250 243 417 1251 226 417 1252 225 417 1253 156 418 1254 154 418 1255 244 418 1256 244 419 1257 154 419 1258 245 419 1259 245 420 1260 246 420 1261 244 420 1262 244 421 1263 246 421 1264 247 421 1265 247 422 1266 248 422 1267 244 422 1268 244 423 1269 248 423 1270 249 423 1271 249 424 1272 157 424 1273 244 424 1274 244 425 1275 157 425 1276 156 425 1277 250 426 1278 217 426 1279 251 426 1280 251 427 1281 217 427 1282 216 427 1283 216 428 1284 214 428 1285 251 428 1286 251 429 1287 214 429 1288 252 429 1289 252 430 1290 248 430 1291 251 430 1292 251 431 1293 248 431 1294 247 431 1295 247 432 1296 246 432 1297 251 432 1298 251 433 1299 246 433 1300 250 433 1301 213 434 1302 211 434 1303 253 434 1304 253 435 1305 211 435 1306 240 435 1307 240 436 1308 238 436 1309 253 436 1310 253 437 1311 238 437 1312 254 437 1313 254 438 1314 248 438 1315 253 438 1316 253 439 1317 248 439 1318 252 439 1319 252 440 1320 214 440 1321 253 440 1322 253 441 1323 214 441 1324 213 441 1325 237 442 1326 163 442 1327 255 442 1328 255 443 1329 163 443 1330 162 443 1331 162 444 1332 157 444 1333 255 444 1334 255 445 1335 157 445 1336 249 445 1337 249 446 1338 248 446 1339 255 446 1340 255 447 1341 248 447 1342 254 447 1343 254 448 1344 238 448 1345 255 448 1346 255 449 1347 238 449 1348 237 449 1349</p>
                </triangles>
            </mesh>
        </geometry>
    </library_geometries>
    <library_visual_scenes>
        <visual_scene id="VisualSceneNode" name="VisualScene">
            <node id="node" name="node">
                <instance_geometry url="#shape0-lib">
                    <bind_material>
                        <technique_common>
                            <instance_material symbol="material0" target="#material0">
                                <bind_vertex_input semantic="UVSET0" input_semantic="TEXCOORD"/>
                            </instance_material>
                        </technique_common>
                    </bind_material>
                </instance_geometry>
            </node>
        </visual_scene>
    </library_visual_scenes>
    <scene>
        <instance_visual_scene url="#VisualSceneNode"/>
    </scene>
</COLLADA>
